<?xml version="1.0" encoding="utf-8"?>
<!-- Svg Vector Icons : http://www.onlinewebfonts.com/icon -->
<!DOCTYPE svg PUBLIC "-//W3C//DTD SVG 1.1//EN" "http://www.w3.org/Graphics/SVG/1.1/DTD/svg11.dtd">
<svg version="1.1" xmlns="http://www.w3.org/2000/svg" xmlns:xlink="http://www.w3.org/1999/xlink" x="0px" y="0px" viewBox="0 0 1000 1000" fill="#cdcdcd" xml:space="preserve">
<metadata> Svg Vector Icons : http://www.onlinewebfonts.com/icon </metadata>
<g><path d="M216.8,277.8L22.6,83.7c-16.9-16.8-16.9-44.2,0-61c16.8-16.9,44.2-16.9,61,0l194.2,194.2c118.3-88.7,286.9-79.2,394.5,28.3L245.1,672.3C137.6,564.7,128.1,396.1,216.8,277.8z M765.6,338.5C873.2,446.1,882.7,614.7,794,733l183.4,183.4c16.8,16.8,16.8,44.2,0,61c-16.8,16.9-44.2,16.9-61,0L733,794c-118.3,88.7-286.9,79.2-394.5-28.3l91.5-91.5l-76.3-76.3c-25.3-25.3-25.3-66.3,0-91.5c25.3-25.3,66.3-25.3,91.5,0l76.3,76.3l61-61l-76.3-76.3c-25.3-25.3-25.3-66.3,0-91.5c25.3-25.3,66.3-25.3,91.5,0l76.3,76.3L765.6,338.5z"/></g>
</svg>