<?xml version="1.0" encoding="utf-8"?>
<!-- Svg Vector Icons : http://www.onlinewebfonts.com/icon -->
<!DOCTYPE svg PUBLIC "-//W3C//DTD SVG 1.1//EN" "http://www.w3.org/Graphics/SVG/1.1/DTD/svg11.dtd">
<svg version="1.1" xmlns="http://www.w3.org/2000/svg" xmlns:xlink="http://www.w3.org/1999/xlink" x="0px" y="0px" viewBox="0 0 1000 1000" fill="#696969" xml:space="preserve">
<metadata> Svg Vector Icons : http://www.onlinewebfonts.com/icon </metadata>
<g><g transform="translate(0.000000,511.000000) scale(0.100000,-0.100000)"><path d="M4511.9,3474.6c-695.1-49.8-1330.8-463.4-1685-1097.2c-86.2-153.2-191.5-442.3-222.1-610.8l-23-126.4h-107.2c-404,0-917.2-168.5-1304-427c-201-134-526.6-465.3-658.7-670.2C106-81.2-5.1-812.6,201.7-1519.2c220.2-756.3,827.2-1380.5,1583.5-1627.5c361.9-118.7,245.1-114.9,3214.9-114.9c2981.3,0,2856.8-3.8,3222.5,118.7c1374.8,459.6,2050.7,1989.5,1466.7,3322.1c-218.3,495.9-654.9,953.5-1143.1,1200.6c-203,101.5-507.4,199.1-735.3,233.6c-241.2,38.3-603.1,24.9-832.9-26.8l-158.9-36.4l-9.6,68.9c-111.1,725.7-540,1328.8-1168,1642.9C5295,3436.3,4929.3,3505.2,4511.9,3474.6z M2763.7-247.7c122.5-40.2,270-176.2,335.1-310.2c46-91.9,53.6-132.1,53.6-262.3c-1.9-195.3-51.7-317.9-183.8-440.4c-134-126.4-243.2-168.5-419.3-168.5s-285.3,42.1-419.3,168.5c-132.1,122.6-181.9,245.1-183.8,440.4c0,180,46,302.5,158.9,417.4C2286.9-215.2,2509-163.5,2763.7-247.7z M5214.6-247.7c122.5-40.2,270-176.2,335.1-310.2c45.9-91.9,53.6-132.1,53.6-262.3c-1.9-195.3-51.7-317.9-183.8-440.4c-134-126.4-243.2-168.5-419.3-168.5s-285.3,42.1-419.3,168.5c-132.1,122.6-181.9,245.1-183.8,440.4c0,180,46,302.5,158.9,417.4C4737.8-215.2,4959.9-163.5,5214.6-247.7z M7665.5-247.7c122.5-40.2,270-176.2,335.1-310.2c45.9-91.9,53.6-132.1,53.6-262.3c-1.9-195.3-51.7-317.9-183.8-440.4c-134-126.4-243.2-168.5-419.3-168.5s-285.3,42.1-419.3,168.5c-132.1,122.6-181.9,245.1-183.8,440.4c0,180,46,302.5,158.9,417.4C7188.7-215.2,7410.8-163.5,7665.5-247.7z"/></g></g>
</svg>