<?xml version="1.0" encoding="utf-8"?>
<!-- Svg Vector Icons : http://www.onlinewebfonts.com/icon -->
<!DOCTYPE svg PUBLIC "-//W3C//DTD SVG 1.1//EN" "http://www.w3.org/Graphics/SVG/1.1/DTD/svg11.dtd">
<svg version="1.1" xmlns="http://www.w3.org/2000/svg" xmlns:xlink="http://www.w3.org/1999/xlink" x="0px" y="0px" viewBox="0 0 1000 1000" fill="#696969" xml:space="preserve">
<metadata> Svg Vector Icons : http://www.onlinewebfonts.com/icon </metadata>
<g><path d="M173.7,233.4L22.4,82.1c-16.5-16.5-16.5-43.2,0-59.7c16.5-16.5,43.2-16.5,59.7,0l151.4,151.4c115.8-86.8,280.7-77.5,386,27.7L201.5,619.4C96.2,514.1,87,349.2,173.7,233.4z M798.5,380.6c105.3,105.3,114.5,270.2,27.7,386l151.4,151.4c16.5,16.5,16.5,43.2,0,59.7c-16.5,16.5-43.2,16.5-59.7,0L766.6,826.3c-115.8,86.8-280.7,77.5-386-27.7l89.6-89.6l-74.6-74.6c-24.7-24.7-24.7-64.8,0-89.6c24.7-24.7,64.8-24.7,89.6,0l74.6,74.6l59.7-59.7l-74.6-74.6c-24.7-24.7-24.7-64.8,0-89.6c24.7-24.7,64.8-24.7,89.6,0l74.6,74.6L798.5,380.6z"/></g>
</svg>